<?xml version="1.0" standalone="no"?>
<!DOCTYPE svg PUBLIC "-//W3C//DTD SVG 20010904//EN"
 "http://www.w3.org/TR/2001/REC-SVG-20010904/DTD/svg10.dtd">
<svg version="1.0" xmlns="http://www.w3.org/2000/svg"
 width="225.000000pt" height="225.000000pt" viewBox="0 0 225.000000 225.000000"
 preserveAspectRatio="xMidYMid meet">

<g transform="translate(0.000000,225.000000) scale(0.100000,-0.100000)"
fill="#000000" stroke="none">
<path d="M1268 2243 c-10 -2 -18 -9 -18 -14 0 -5 -11 -9 -25 -9 -15 0 -25 -6
-25 -14 0 -8 -5 -18 -12 -22 -7 -5 -8 -3 -3 5 6 10 3 11 -15 1 -17 -9 -19 -14
-10 -20 9 -6 6 -10 -11 -16 -13 -4 -27 -8 -31 -9 -3 0 -16 -13 -28 -28 -12
-16 -27 -26 -34 -24 -6 2 -20 0 -31 -5 -18 -8 -18 -8 3 -4 29 6 28 -8 -3 -28
-14 -9 -25 -21 -25 -27 0 -5 -9 -19 -20 -31 -19 -21 -20 -21 -20 -2 -1 33 -17
-5 -24 -57 -4 -26 -15 -54 -26 -64 -11 -10 -17 -21 -15 -26 3 -4 1 -10 -5 -14
-5 -3 -10 -19 -10 -35 0 -15 -6 -30 -12 -33 -10 -3 -13 -50 -13 -191 l0 -188
-30 -24 c-70 -55 -68 -52 -61 -118 3 -33 11 -86 16 -116 19 -101 23 -218 10
-250 -20 -49 -58 -70 -121 -66 -30 1 -61 5 -69 9 -23 9 -79 18 -142 24 -32 3
-58 8 -58 13 0 4 -17 10 -37 13 -21 3 -48 8 -60 12 -15 5 -23 3 -23 -4 0 -6 9
-11 20 -11 11 0 20 -4 20 -10 0 -15 -58 -12 -62 2 -3 9 -10 7 -24 -6 -13 -14
-15 -21 -6 -24 6 -2 12 -10 12 -17 0 -15 22 -25 56 -25 13 0 24 -4 24 -10 0
-12 -3 -12 -60 0 -89 20 -100 28 -100 71 l0 39 -60 0 c-45 0 -60 4 -60 14 0 8
-9 24 -20 37 -19 24 -19 23 -20 -458 l0 -483 1125 0 1125 0 -1 688 c-1 378 -4
677 -6 664 -2 -12 -8 -20 -13 -17 -4 2 -22 0 -39 -6 -31 -11 -42 -34 -19 -41
12 -4 3 -28 -11 -28 -4 0 -13 11 -21 24 -7 14 -24 27 -37 31 -22 5 -24 10 -19
38 28 159 37 261 31 370 -6 108 -9 122 -36 165 -16 25 -29 51 -29 58 0 6 -7
14 -15 18 -8 3 -15 12 -15 21 0 9 -9 26 -20 38 -12 12 -23 32 -26 44 -4 14
-14 23 -24 23 -11 0 -34 14 -52 30 -18 17 -37 30 -43 30 -6 0 -21 14 -33 30
-22 30 -22 30 -2 30 11 0 20 5 20 10 0 6 -9 10 -19 10 -11 0 -23 -4 -26 -10
-11 -18 -35 -10 -35 12 0 20 -1 20 -12 5 -12 -15 -17 -15 -67 -1 -42 13 -86
15 -205 12 -83 -3 -160 -8 -170 -13 -14 -6 -17 -5 -12 3 7 12 4 13 -26 5z m92
-383 c6 10 14 11 32 4 13 -5 55 -11 93 -13 49 -2 73 -7 78 -18 6 -10 17 -12
38 -8 17 4 52 4 79 0 39 -5 47 -10 43 -22 -5 -14 -1 -15 26 -10 26 5 32 4 28
-7 -3 -7 0 -19 6 -26 9 -10 9 -11 -3 -6 -8 4 -6 0 4 -8 11 -9 16 -16 10 -16
-5 0 -1 -5 9 -11 20 -12 25 -89 5 -89 -6 0 -1 -8 10 -19 22 -18 32 -81 13 -81
-5 0 -13 -9 -16 -21 -4 -11 -9 -18 -12 -15 -6 6 -32 -23 -33 -36 0 -5 10 -8
23 -8 l22 -1 -24 -19 c-12 -11 -27 -18 -31 -15 -4 2 -26 -4 -48 -15 -23 -11
-55 -20 -71 -20 -45 0 -140 -39 -172 -70 -22 -20 -29 -37 -29 -64 0 -25 -4
-36 -15 -36 -11 0 -15 -11 -15 -40 0 -28 4 -40 14 -40 9 0 16 -12 18 -32 l3
-32 35 30 c33 29 37 30 65 18 37 -17 285 -8 298 10 16 25 50 -70 41 -118 -6
-37 -22 -66 -34 -66 -6 0 -10 -11 -10 -25 0 -18 -5 -25 -20 -25 -11 0 -20 -6
-20 -12 -1 -15 -45 -68 -57 -68 -5 0 -14 -9 -21 -20 -10 -16 -23 -20 -67 -20
-59 0 -136 25 -134 44 5 43 -2 66 -22 66 -11 0 -17 4 -14 10 4 6 2 17 -5 25
-12 14 -18 48 -19 103 -1 24 -5 32 -20 32 -21 0 -32 -29 -36 -103 -2 -27 -5
-50 -8 -53 -3 -3 -30 -8 -61 -11 -44 -5 -56 -3 -56 8 0 8 -10 19 -22 24 -21 9
-23 16 -19 73 l3 62 -40 0 c-37 0 -40 -2 -46 -33 -3 -18 -16 -41 -28 -52 -20
-17 -35 -21 -75 -24 -7 -1 -13 -12 -13 -26 0 -23 -4 -25 -46 -25 l-46 0 7 40
c4 22 3 40 -2 40 -5 0 -17 24 -27 52 -19 58 -11 108 19 108 8 0 15 7 15 15 0
11 11 15 38 15 21 0 42 4 47 9 15 14 114 -36 127 -64 14 -31 42 -32 71 -2 13
12 27 22 31 22 5 0 15 24 22 53 8 30 21 63 29 75 8 12 15 29 15 39 0 25 -52
81 -97 104 -21 10 -53 34 -70 51 -18 18 -37 33 -43 33 -5 0 -10 6 -10 14 0 7
-9 16 -21 19 -17 5 -19 9 -10 26 6 11 11 54 11 95 0 41 5 86 11 100 9 19 9 29
0 39 -9 12 -7 16 11 21 13 3 35 6 51 6 22 0 27 4 27 25 0 14 -5 25 -12 25 -30
0 4 10 53 16 29 3 59 10 64 16 6 6 17 1 28 -13 15 -19 20 -20 27 -9z m-1280
-1001 c0 -15 -4 -19 -16 -15 -9 3 -23 6 -32 6 -15 1 -14 3 2 15 28 21 46 19
46 -6z m1920 -40 c0 -5 -7 -9 -15 -9 -15 0 -20 12 -9 23 8 8 24 -1 24 -14z
m-50 -73 c-5 -15 -16 -26 -23 -23 -21 7 -19 32 5 63 21 26 23 27 26 8 2 -11
-2 -33 -8 -48z"/>
<path d="M1137 1763 c-4 -3 -7 -11 -7 -17 0 -6 5 -5 12 2 6 6 9 14 7 17 -3 3
-9 2 -12 -2z"/>
<path d="M1040 2139 c0 -5 5 -7 10 -4 6 3 10 8 10 11 0 2 -4 4 -10 4 -5 0 -10
-5 -10 -11z"/>
<path d="M0 1199 c0 -5 5 -7 10 -4 5 3 10 8 10 11 0 2 -4 4 -10 4 -5 0 -10 -5
-10 -11z"/>
</g>
</svg>
